<mxfile host="65bd71144e" modified="2021-01-02T00:54:41.048Z" agent="5.0 (Macintosh; Intel Mac OS X 10_14_6) AppleWebKit/537.36 (KHTML, like Gecko) Code/1.52.1 Chrome/83.0.4103.122 Electron/9.3.5 Safari/537.36" version="13.10.0" etag="2rb7ESr-m7Nx2pZz8Mdk" type="embed">
    <diagram id="iUZeRVkSPaH48BYcW-wg" name="Page-1">
        <mxGraphModel dx="564" dy="529" grid="1" gridSize="10" guides="1" tooltips="1" connect="1" arrows="1" fold="1" page="1" pageScale="1" pageWidth="850" pageHeight="1100" math="0" shadow="0">
            <root>
                <mxCell id="0"/>
                <mxCell id="1" parent="0"/>
                <mxCell id="6" value="Game" style="html=1;" vertex="1" parent="1">
                    <mxGeometry x="200" y="40" width="110" height="50" as="geometry"/>
                </mxCell>
                <mxCell id="7" value="Board" style="html=1;" vertex="1" parent="1">
                    <mxGeometry x="80" y="130" width="110" height="50" as="geometry"/>
                </mxCell>
                <mxCell id="8" value="Player" style="html=1;" vertex="1" parent="1">
                    <mxGeometry x="400" y="40" width="110" height="50" as="geometry"/>
                </mxCell>
                <mxCell id="9" value="Piece" style="html=1;" vertex="1" parent="1">
                    <mxGeometry x="80" y="240" width="110" height="50" as="geometry"/>
                </mxCell>
                <mxCell id="10" value="Move" style="html=1;" vertex="1" parent="1">
                    <mxGeometry x="270" y="130" width="110" height="50" as="geometry"/>
                </mxCell>
            </root>
        </mxGraphModel>
    </diagram>
</mxfile>